<svg width="215" height="301" viewBox="0 0 215 301" fill="none" xmlns="http://www.w3.org/2000/svg">
<path d="M202.583 252.801C202.485 255.8 204.869 258.311 207.923 258.256C221.665 258.007 235.252 255.219 247.966 250.023C260.654 244.838 272.212 237.36 282.043 227.997C284.259 225.886 284.13 222.414 281.881 220.371L254.469 195.472C252.228 193.436 248.734 193.6 246.442 195.613C241.382 200.056 235.587 203.645 229.29 206.218C223.002 208.788 216.33 210.298 209.555 210.698C206.474 210.88 203.877 213.243 203.778 216.272L202.583 252.801Z" fill="#DEDDDD"/>
<path d="M305.856 124.409C308.862 123.696 310.733 120.713 309.853 117.813C304.169 99.0944 293.345 82.2202 278.513 69.059C262.294 54.6662 242.03 45.3784 220.353 42.4005C198.675 39.4227 176.584 42.8924 156.945 52.3594C138.98 61.0201 123.825 74.3341 113.099 90.8088C111.441 93.3554 112.375 96.6896 115.036 98.1686L147.764 116.362C150.429 117.844 153.808 116.894 155.575 114.413C161.404 106.228 169.271 99.5924 178.468 95.1588C189.344 89.916 201.578 87.9944 213.583 89.6435C225.588 91.2927 236.81 96.4364 245.793 104.407C253.408 111.165 259.116 119.69 262.415 129.158C263.402 131.988 266.353 133.776 269.325 133.071L305.856 124.409Z" fill="#DEDDDD"/>
<path d="M112.327 103.501C109.606 102.116 106.227 103.167 104.944 105.919C96.1803 124.724 93.1548 145.653 96.2998 166.171C99.4482 186.712 108.632 205.87 122.674 221.336C124.704 223.572 128.225 223.579 130.42 221.465L157.013 195.847C159.218 193.723 159.238 190.271 157.293 187.944C150.396 179.689 145.872 169.739 144.245 159.126C142.619 148.518 143.96 137.711 148.074 127.841C149.238 125.047 148.218 121.767 145.505 120.386L112.327 103.501Z" fill="#DEDDDD"/>
<path d="M134.038 224.414C131.893 226.595 131.937 230.071 134.253 232.042C150.549 245.915 170.685 254.747 192.106 257.417C195.163 257.799 197.86 255.508 198.093 252.486L200.907 216.045C201.138 213.052 198.861 210.48 195.852 209.985C185.633 208.306 176.02 204.093 167.934 197.749C165.549 195.878 162.054 195.933 159.917 198.105L134.038 224.414Z" fill="#DEDDDD"/>
<path d="M112.317 103.342C109.611 101.932 106.223 102.949 104.912 105.688C99.3353 117.347 95.9545 129.896 94.9333 142.732C94.6952 145.724 97.1057 148.21 100.158 148.291L137.512 149.28C140.596 149.362 143.15 146.955 143.519 143.943C144.191 138.469 145.637 133.113 147.817 128.029C149.01 125.246 148.023 121.956 145.323 120.549L112.317 103.342Z" fill="#9EB9F3"/>
<path d="M133.569 223.969C131.41 226.136 131.432 229.612 133.735 231.598C144.01 240.457 155.897 247.346 168.772 251.904C171.662 252.927 174.793 251.271 175.695 248.373L186.575 213.43C187.472 210.55 185.822 207.54 182.995 206.412C177.455 204.203 172.28 201.204 167.636 197.513C165.263 195.627 161.768 195.661 159.617 197.82L133.569 223.969Z" fill="#F6CF71"/>
<path d="M203.006 252.814C202.921 255.813 205.315 258.314 208.369 258.247C221.041 257.966 233.567 255.528 245.384 251.041C248.269 249.945 249.538 246.677 248.277 243.92L232.993 210.534C231.744 207.806 228.487 206.621 225.59 207.593C220.491 209.305 215.182 210.344 209.803 210.683C206.722 210.877 204.135 213.25 204.049 216.28L203.006 252.814Z" fill="#66C5CC"/>
<path d="M305.991 124.958C309.001 124.261 310.888 121.288 310.024 118.384C305.66 103.713 298.128 90.1073 287.914 78.4984C276.478 65.5005 262.015 55.388 245.747 49.0148C229.479 42.6416 211.883 40.1949 194.446 41.8814C178.874 43.3874 163.837 48.1503 150.343 55.8228C147.666 57.3445 146.93 60.7594 148.611 63.2848L169.018 93.947C170.685 96.4515 174.098 97.1239 176.811 95.7202C183.755 92.1273 191.361 89.8793 199.212 89.1201C208.907 88.1824 218.691 89.5428 227.737 93.0864C236.782 96.6301 244.824 102.253 251.183 109.48C256.338 115.339 260.264 122.114 262.76 129.415C263.729 132.251 266.671 134.055 269.646 133.366L305.991 124.958Z" fill="#F89C74"/>
<path d="M0 112.864L79.2127 112.864L112.297 139.042" stroke="#868686" stroke-width="1.9" stroke-dasharray="1.9 1.9"/>
<path d="M42.7124 272.05H124.754L159.021 231.473" stroke="#868686" stroke-width="1.9" stroke-dasharray="1.9 1.9"/>
</svg>
