<svg width="369" height="534" viewBox="0 0 369 534" fill="none" xmlns="http://www.w3.org/2000/svg">
<path d="M-6.53287 452.946C-6.63096 455.944 -4.24772 458.449 -1.19395 458.46C24.6527 458.55 50.2766 453.577 74.1632 443.815C98.0235 434.064 119.632 419.745 137.731 401.717C139.898 399.559 139.774 396.092 137.525 394.049L82.564 344.127C80.3228 342.091 76.8231 342.244 74.6142 344.346C64.9177 353.574 53.5215 360.944 41.0124 366.056C28.511 371.165 15.1536 373.915 1.64275 374.179C-1.44252 374.239 -4.03571 376.613 -4.13482 379.643L-6.53287 452.946Z" fill="#DEDDDD"/>
<path d="M142.924 388.135C145.253 390.075 148.763 389.79 150.693 387.436C168.389 365.838 181.06 340.691 187.788 313.752C194.52 286.794 195.127 258.741 189.594 231.568C188.996 228.633 186.034 226.821 183.054 227.49L110.023 243.875C107.008 244.552 105.129 247.506 105.662 250.488C108.225 264.83 107.732 279.557 104.19 293.738C100.648 307.923 94.1415 321.215 85.1048 332.783C83.227 335.187 83.4846 338.628 85.8203 340.573L142.924 388.135Z" fill="#DEDDDD"/>
<path d="M181.153 219.835C184.159 219.122 186.024 216.141 185.21 213.222C175.489 178.363 155.792 146.904 128.388 122.586C99.5962 97.0377 63.6272 80.5509 25.1475 75.265C-13.3322 69.9791 -52.5464 76.1381 -87.4068 92.9429C-120.596 108.942 -148.38 133.887 -167.523 164.792C-169.123 167.374 -168.194 170.705 -165.534 172.184L-99.964 208.634C-97.2989 210.115 -93.9116 209.174 -92.2483 206.625C-81.7075 190.471 -66.8319 177.414 -49.2027 168.916C-29.8968 159.609 -8.1798 156.198 13.1305 159.126C34.4407 162.053 54.3606 171.184 70.3053 185.333C84.8844 198.27 95.5248 214.856 101.112 233.256C101.983 236.123 104.945 237.905 107.917 237.2L181.153 219.835Z" fill="#DEDDDD"/>
<path d="M-131.083 401.419C-133.228 403.6 -133.18 407.071 -130.909 409.092C-100.366 436.285 -61.7462 453.221 -20.6886 457.429C-17.6229 457.743 -14.9273 455.459 -14.6939 452.437L-9.04724 379.308C-8.81613 376.315 -11.0896 373.732 -14.1171 373.355C-35.2473 370.721 -55.1113 362.013 -71.1907 348.335C-73.4979 346.372 -76.9994 346.438 -79.1359 348.61L-131.083 401.419Z" fill="#DEDDDD"/>
<path d="M-5.76461 452.969C-5.8502 455.967 -3.45664 458.462 -0.402824 458.461C24.9987 458.448 50.1506 453.546 73.6208 444.036C76.4806 442.877 77.7511 439.615 76.4894 436.858L45.8352 369.898C44.5864 367.17 41.3276 365.973 38.4721 367.058C26.8536 371.47 14.541 373.876 2.08297 374.169C-1.00218 374.242 -3.5857 376.626 -3.67218 379.656L-5.76461 452.969Z" fill="#66C5CC"/>
<path d="M142.412 389.12C144.755 391.045 148.263 390.738 150.177 388.372C160.968 375.03 169.877 360.328 176.665 344.66C177.867 341.885 176.463 338.73 173.617 337.642L103.789 310.932C100.929 309.838 97.7041 311.248 96.43 314.008C93.1398 321.136 89.0502 327.884 84.2368 334.127C82.3747 336.542 82.6545 339.982 85.0025 341.912L142.412 389.12Z" fill="#FE88B1"/>
<path d="M181.397 220.832C184.407 220.136 186.288 217.165 185.491 214.242C177.961 186.636 164.154 161.026 145.075 139.342C124.775 116.27 99.1021 98.3189 70.2245 87.0059C41.347 75.6928 10.113 71.3498 -20.8397 74.3434C-49.9283 77.1567 -77.9657 86.3721 -102.866 101.271C-105.507 102.852 -106.246 106.261 -104.565 108.786L-63.641 170.274C-61.9741 172.778 -58.5574 173.462 -55.9031 171.953C-42.5862 164.382 -27.7468 159.683 -12.3797 158.197C4.8307 156.532 22.1975 158.947 38.2541 165.237C54.3106 171.528 68.5854 181.509 79.8729 194.337C89.9579 205.799 97.3935 219.234 101.7 233.72C102.554 236.592 105.506 238.39 108.481 237.701L181.397 220.832Z" fill="#F89C74"/>
<path d="M368.889 306.331H226.605L167.177 343.507" stroke="#868686" stroke-width="1.9" stroke-dasharray="1.9 1.9"/>
<path d="M265.513 467.508H108.164L42.4434 428.009" stroke="#868686" stroke-width="1.9" stroke-dasharray="1.9 1.9"/>
<path d="M331.687 133.348H197.773L141.841 179.818" stroke="#868686" stroke-width="1.9" stroke-dasharray="1.9 1.9"/>
</svg>
